# xmcd CD database file
#
# Track frame offsets:
#	150
#	22438
#	40201
#	58149
#	69757
#	85799
#	109691
#	123695
#	143791
#	163968
#
# Disc length: 2477 seconds
#
# Revision: 0
# Processed by: cddbd v1.5.1PL0 Copyright (c) Steve Scherf et al.
# Submitted via: CDex 1.51
#
DISCID=9009ab0a
DTITLE=Wayne Dean - Final Chants
DYEAR=2004
DGENRE=Country
TTITLE0=If You Leave
TTITLE1=Don't You Know
TTITLE2=Sinful Love
TTITLE3=Already Over Me
TTITLE4=That's What I'm Doing
TTITLE5=Lonely Park
TTITLE6=Someone to Love
TTITLE7=Sorry
TTITLE8=Unforgiven
TTITLE9=I'll Get Along Without You
EXTD=YEAR: 2004
EXTT0=
EXTT1=
EXTT2=
EXTT3=
EXTT4=
EXTT5=
EXTT6=
EXTT7=
EXTT8=
EXTT9=
PLAYORDER=
